<svg width="44" height="45" viewBox="0 0 44 45" fill="none" xmlns="http://www.w3.org/2000/svg">
<circle opacity="0.12" cx="22" cy="22.27" r="22" fill="#A12128"/>
<path d="M22 26.9966C23.7475 26.9966 25.1641 25.58 25.1641 23.8325C25.1641 22.0851 23.7475 20.6685 22 20.6685C20.2525 20.6685 18.8359 22.0851 18.8359 23.8325C18.8359 25.58 20.2525 26.9966 22 26.9966Z" fill="#A12128"/>
<path d="M26.6209 15.8247L26.4186 14.8137C26.3095 14.2678 25.8262 13.8716 25.2695 13.8716H18.7302C18.1736 13.8716 17.6903 14.2678 17.5811 14.8137L17.3789 15.8247H26.6209Z" fill="#A12128"/>
<path d="M30.2422 16.9966C28.8663 16.9966 14.4017 16.9966 13.7578 16.9966C12.7886 16.9966 12 17.7851 12 18.7544V28.9106C12 29.8799 12.7886 30.6685 13.7578 30.6685H30.2422C31.2114 30.6685 32 29.8799 32 28.9106V18.7544C32 17.7851 31.2114 16.9966 30.2422 16.9966ZM17 20.6685H15.125C14.8014 20.6685 14.5391 20.4061 14.5391 20.0825C14.5391 19.7589 14.8014 19.4966 15.125 19.4966H17C17.3236 19.4966 17.5859 19.7589 17.5859 20.0825C17.5859 20.4061 17.3236 20.6685 17 20.6685ZM22 28.1685C19.6091 28.1685 17.6641 26.2234 17.6641 23.8325C17.6641 21.4417 19.6091 19.4966 22 19.4966C24.3909 19.4966 26.3359 21.4417 26.3359 23.8325C26.3359 26.2234 24.3909 28.1685 22 28.1685Z" fill="#A12128"/>
</svg>
