<svg width="44" height="44" viewBox="0 0 44 44" fill="none" xmlns="http://www.w3.org/2000/svg">
<circle cx="22" cy="22" r="20" fill="#FDF0F1" stroke="white" stroke-width="4"/>
<g clip-path="url(#clip0_10_1897)">
<path d="M31.5757 19.0442C31.5724 19.0134 31.5674 18.9842 31.5574 18.955C31.5507 18.9342 31.5432 18.9142 31.5332 18.895C31.5199 18.8692 31.5032 18.8458 31.4849 18.8233C31.4707 18.8066 31.4574 18.79 31.4416 18.775C31.4199 18.7558 31.3958 18.7417 31.3708 18.7267C31.3508 18.715 31.3316 18.7034 31.3099 18.695C31.3024 18.6925 31.2974 18.6867 31.2899 18.685C31.2249 18.665 24.7341 16.6275 22.3683 12.22C22.2949 12.085 22.1549 12.0008 22.0024 12C22.0016 12 22.0008 12 21.9999 12C21.8474 12 21.7074 12.0825 21.6349 12.2158C19.2332 16.5833 12.7732 18.6658 12.7082 18.6858C12.7007 18.6883 12.6957 18.6933 12.689 18.6958C12.6674 18.7033 12.6499 18.7158 12.6299 18.7266C12.6049 18.7416 12.5799 18.7558 12.5582 18.775C12.5415 18.79 12.5282 18.8075 12.514 18.825C12.4965 18.8466 12.4798 18.8691 12.4665 18.895C12.4565 18.915 12.449 18.935 12.4415 18.9566C12.4323 18.9858 12.4273 19.0141 12.424 19.045C12.4232 19.0583 12.4165 19.07 12.4165 19.0833V31.5833C12.4165 31.8133 12.6032 32 12.8332 32H13.6665C13.8498 32 14.0115 31.88 14.0657 31.705C14.0799 31.6575 15.3082 27.5725 15.6565 21.9666C16.2057 21.88 16.6815 21.5808 16.9998 21.1533C17.3799 21.6642 17.9824 22 18.6666 22C19.3508 22 19.9533 21.6642 20.3333 21.1542C20.7132 21.6642 21.3157 22 21.9999 22C22.6841 22 23.2866 21.6642 23.6666 21.1542C24.0466 21.665 24.6491 22 25.3332 22C26.0174 22 26.6199 21.6642 26.9999 21.1542C27.3182 21.5817 27.7941 21.8809 28.3432 21.9675C28.6915 27.5733 29.9199 31.6583 29.934 31.7058C29.9882 31.88 30.1499 32 30.3332 32H31.1665C31.3965 32 31.5832 31.8133 31.5832 31.5833V19.0833C31.5832 19.0692 31.5766 19.0575 31.5757 19.0442Z" fill="#A12128"/>
</g>
<defs>
<clipPath id="clip0_10_1897">
<rect width="20" height="20" fill="white" transform="translate(12 12)"/>
</clipPath>
</defs>
</svg>
