<svg width="44" height="44" viewBox="0 0 44 44" fill="none" xmlns="http://www.w3.org/2000/svg">
<circle cx="22" cy="22" r="20" fill="#FDF0F1" stroke="white" stroke-width="4"/>
<path d="M30.9582 18.25V22.4167C30.9582 22.9139 30.7606 23.3909 30.409 23.7425C30.0574 24.0941 29.5805 24.2917 29.0832 24.2917H22.6248V23.6667C22.6248 23.5009 22.559 23.3419 22.4418 23.2247C22.3246 23.1075 22.1656 23.0417 21.9998 23.0417C21.8341 23.0417 21.6751 23.1075 21.5579 23.2247C21.4407 23.3419 21.3748 23.5009 21.3748 23.6667V24.2917H14.9165C14.4192 24.2917 13.9423 24.0941 13.5907 23.7425C13.239 23.3909 13.0415 22.9139 13.0415 22.4167V18.25C13.0415 17.7527 13.239 17.2758 13.5907 16.9242C13.9423 16.5725 14.4192 16.375 14.9165 16.375H29.0832C29.5805 16.375 30.0574 16.5725 30.409 16.9242C30.7606 17.2758 30.9582 17.7527 30.9582 18.25Z" fill="#A12128"/>
<path d="M26.1663 17.625H17.833C17.6679 17.6228 17.5102 17.5563 17.3935 17.4396C17.2767 17.3228 17.2102 17.1651 17.208 17V15.3333C17.2102 14.9472 17.3645 14.5776 17.6376 14.3046C17.9106 14.0315 18.2802 13.8772 18.6663 13.875H25.333C25.7191 13.8772 26.0888 14.0315 26.3618 14.3046C26.6348 14.5776 26.7892 14.9472 26.7913 15.3333V17C26.7892 17.1651 26.7226 17.3228 26.6059 17.4396C26.4892 17.5563 26.3314 17.6228 26.1663 17.625ZM18.458 16.375H25.5413V15.3333C25.5413 15.2781 25.5194 15.2251 25.4803 15.186C25.4413 15.1469 25.3883 15.125 25.333 15.125H18.6663C18.6111 15.125 18.5581 15.1469 18.519 15.186C18.48 15.2251 18.458 15.2781 18.458 15.3333V16.375Z" fill="#A12128"/>
<path d="M30.125 24.9167V28.2501C30.125 28.7474 29.9275 29.2243 29.5758 29.5759C29.2242 29.9275 28.7473 30.1251 28.25 30.1251H15.75C15.2527 30.1251 14.7758 29.9275 14.4242 29.5759C14.0725 29.2243 13.875 28.7474 13.875 28.2501V24.9167C14.2053 25.0536 14.5592 25.1244 14.9167 25.1251H21.375V25.3334C21.375 25.4992 21.4408 25.6581 21.5581 25.7754C21.6753 25.8926 21.8342 25.9584 22 25.9584C22.1658 25.9584 22.3247 25.8926 22.4419 25.7754C22.5592 25.6581 22.625 25.4992 22.625 25.3334V25.1251H29.0833C29.4408 25.1244 29.7947 25.0536 30.125 24.9167Z" fill="#A12128"/>
</svg>
